<?xml version="1.0" standalone="no"?>
<!DOCTYPE svg PUBLIC "-//W3C//DTD SVG 20010904//EN"
 "http://www.w3.org/TR/2001/REC-SVG-20010904/DTD/svg10.dtd">
<svg version="1.0" xmlns="http://www.w3.org/2000/svg"
 width="235.000000pt" height="235.000000pt" viewBox="0 0 235.000000 235.000000"
 preserveAspectRatio="xMidYMid meet">
<metadata>
Created by potrace 1.14, written by Peter Selinger 2001-2017
</metadata>
<g transform="translate(0.000000,235.000000) scale(0.100000,-0.100000)"
fill="#000000" stroke="none">
<path d="M768 2136 c-38 -7 -73 -17 -79 -23 -7 -7 -24 -9 -39 -6 -21 4 -34 -2
-60 -27 -24 -24 -35 -29 -41 -19 -6 10 -16 10 -46 1 -54 -16 -200 -105 -246
-150 -33 -32 -37 -41 -32 -69 5 -26 3 -32 -9 -27 -10 4 -23 -10 -40 -45 -32
-62 -32 -79 -3 -91 16 -6 18 -9 5 -9 -41 -2 -52 -100 -18 -166 11 -22 20 -49
20 -62 0 -33 57 -136 96 -174 68 -66 237 -150 421 -209 143 -45 197 -78 311
-190 53 -51 120 -168 103 -180 -4 -3 -11 -20 -14 -38 -12 -62 -126 -188 -187
-207 -14 -4 -29 -11 -35 -15 -17 -12 -119 -41 -211 -59 -104 -21 -297 -27
-339 -11 -35 14 -161 45 -221 55 -26 4 -44 2 -49 -4 -11 -18 44 -126 83 -163
40 -38 87 -58 137 -58 18 0 38 -6 44 -13 44 -54 360 -58 574 -6 114 27 190 65
197 99 5 26 59 100 73 100 4 0 7 -7 7 -15 0 -23 20 -18 29 8 10 26 4 40 -12
30 -6 -4 -2 9 10 28 12 18 28 34 35 34 7 0 14 10 16 22 3 23 20 40 55 58 30
15 49 94 43 180 -7 99 -57 194 -159 302 -44 46 -85 83 -92 83 -7 0 -15 3 -17
8 -6 13 -83 70 -114 83 -16 7 -40 21 -53 31 -13 10 -32 18 -41 18 -10 0 -22 6
-29 13 -6 8 -74 35 -152 62 -157 55 -174 67 -235 166 -41 68 -52 124 -35 184
8 30 8 41 -2 47 -8 6 14 33 72 88 46 44 90 81 97 81 17 2 25 4 44 12 8 4 29 9
45 11 17 2 41 8 55 13 14 5 48 11 75 12 28 1 73 6 102 12 36 7 58 7 72 0 11
-6 49 -11 84 -11 35 0 89 -5 118 -10 45 -9 56 -8 65 5 6 8 19 15 28 15 49 0
-25 96 -82 106 -20 3 -55 12 -77 20 -38 13 -36 13 49 9 49 -2 91 -7 94 -10 10
-10 19 -5 30 20 11 23 9 25 -26 34 -121 32 -359 40 -494 17z m107 -36 c3 -5
-1 -10 -9 -10 -9 0 -16 5 -16 10 0 6 4 10 9 10 6 0 13 -4 16 -10z m-75 -40 c0
-5 -5 -10 -11 -10 -5 0 -7 5 -4 10 3 6 8 10 11 10 2 0 4 -4 4 -10z m-50 -5 c0
-10 -85 -42 -129 -50 -41 -7 -42 -6 -29 14 7 12 22 21 33 22 41 1 109 9 113
14 7 7 12 6 12 0z m158 -52 c5 -17 -26 -29 -40 -15 -6 6 -7 15 -3 22 9 14 37
9 43 -7z m-78 -8 c-7 -8 -28 -17 -49 -20 -50 -9 -140 -34 -179 -51 -44 -19
-58 -18 -41 3 25 30 129 62 216 67 17 0 35 5 39 9 14 14 26 7 14 -8z m-310
-93 c0 -12 -23 -32 -37 -32 -17 0 -17 27 0 33 19 8 37 8 37 -1z m-212 -415 c6
-18 28 -59 47 -91 19 -33 34 -60 32 -62 -6 -6 -23 12 -35 36 -7 14 -25 48 -41
75 -30 51 -37 75 -23 75 4 0 13 -15 20 -33z m917 -807 c16 -31 22 -86 6 -62
-4 7 -14 12 -22 10 -10 -2 -15 9 -17 40 -4 49 11 55 33 12z m-5 -126 c0 -27
-5 -37 -25 -46 -19 -9 -28 -9 -37 0 -9 9 -9 12 0 12 7 0 12 6 12 14 0 8 7 17
16 20 10 4 14 14 11 25 -3 14 -1 18 9 14 8 -3 14 -19 14 -39z m-190 -79 c-30
-43 -40 -51 -52 -39 -5 4 70 83 80 84 2 0 -11 -20 -28 -45z m108 -19 c-8 -64
-69 -139 -99 -120 -6 3 8 25 29 48 22 24 45 59 51 79 17 50 25 47 19 -7z
m-136 -177 c-20 -8 -37 5 -28 20 5 7 13 7 26 -2 18 -11 19 -12 2 -18z"/>
<path d="M1845 1489 c-4 -6 -16 -8 -27 -6 -14 4 -18 1 -14 -8 2 -7 -4 -37 -15
-67 -10 -29 -18 -64 -17 -78 1 -14 -4 -35 -10 -47 -7 -12 -14 -35 -16 -50 -4
-36 -26 -105 -37 -118 -5 -5 -9 -19 -9 -31 0 -13 -6 -29 -12 -36 -7 -7 -14
-22 -16 -33 -7 -52 -14 -81 -23 -89 -5 -6 -9 -20 -9 -31 0 -22 -25 -108 -39
-135 -5 -9 -12 -31 -16 -50 -4 -19 -22 -80 -39 -135 -18 -55 -41 -134 -51
-175 -10 -41 -22 -81 -28 -88 -6 -8 -14 -35 -18 -60 -3 -26 -10 -65 -14 -88
-5 -31 -3 -44 8 -56 9 -9 13 -24 10 -37 -3 -11 -1 -21 4 -21 21 0 98 200 162
418 20 65 26 75 55 87 33 14 161 16 183 2 6 -4 14 -3 18 2 3 6 15 7 28 2 21
-8 81 -2 140 14 24 6 27 5 27 -18 0 -13 7 -38 15 -53 8 -16 15 -39 15 -50 0
-19 20 -102 66 -266 7 -25 17 -56 24 -67 6 -12 7 -21 3 -21 -4 0 -2 -5 5 -12
8 -8 15 -8 26 1 7 6 18 11 22 10 5 -1 12 -1 15 0 9 1 -5 66 -40 181 -16 52
-36 124 -44 160 -71 301 -293 1040 -317 1055 -5 3 -12 0 -15 -6z m12 -46 c-3
-10 -5 -4 -5 12 0 17 2 24 5 18 2 -7 2 -21 0 -30z m23 -36 c0 -1 18 -72 40
-157 39 -151 46 -190 34 -177 -4 4 -94 322 -94 335 0 1 5 2 10 2 6 0 10 -1 10
-3z m-53 -29 c-3 -8 -6 -5 -6 6 -1 11 2 17 5 13 3 -3 4 -12 1 -19z m-27 -22
c0 -3 -4 -8 -10 -11 -5 -3 -10 -1 -10 4 0 6 5 11 10 11 6 0 10 -2 10 -4z m11
-86 c-9 -23 -10 -23 -10 11 -1 20 2 39 7 43 11 12 14 -27 3 -54z m61 -93 c5
-23 12 -54 15 -69 3 -15 8 -26 12 -24 3 2 7 -12 9 -32 1 -21 9 -42 17 -48 8
-6 15 -17 15 -25 0 -11 -2 -11 -10 1 -19 30 -9 -2 21 -67 23 -50 29 -74 25
-102 -4 -25 -3 -30 3 -16 7 17 11 12 23 -30 l15 -50 -139 -3 c-105 -2 -145 -6
-163 -18 -16 -10 -25 -12 -30 -4 -9 14 86 384 141 548 7 23 36 -15 46 -61z
m-72 57 c0 -3 -7 -31 -16 -62 -19 -66 -40 -96 -29 -42 14 73 26 110 35 110 6
0 10 -3 10 -6z m-46 -181 c-8 -32 -12 -39 -19 -31 -9 8 6 58 16 58 5 0 6 -12
3 -27z m226 -55 c0 -19 -2 -20 -10 -8 -13 19 -13 30 0 30 6 0 10 -10 10 -22z
m-260 -74 c-18 -62 -25 -47 -9 18 7 29 14 47 17 40 2 -8 -1 -34 -8 -58z m310
-251 c0 -13 -9 -14 -52 -8 -29 4 -65 7 -80 6 -39 -2 -35 17 5 21 65 6 127 -3
127 -19z m-175 7 c-3 -5 -19 -10 -36 -10 -16 0 -29 5 -29 10 0 6 16 10 36 10
21 0 33 -4 29 -10z m354 -428 c0 -24 -1 -25 -9 -7 -12 28 -12 47 0 40 6 -3 10
-18 9 -33z"/>
<path d="M1783 523 c9 -2 23 -2 30 0 6 3 -1 5 -18 5 -16 0 -22 -2 -12 -5z"/>
<path d="M2066 425 c13 -54 24 -73 18 -30 -4 22 -11 45 -16 50 -6 6 -7 -1 -2
-20z"/>
<path d="M2102 300 c0 -14 2 -19 5 -12 2 6 2 18 0 25 -3 6 -5 1 -5 -13z"/>
</g>
</svg>
